<svg width="24" height="24" viewBox="0 0 24 24" fill="none" xmlns="http://www.w3.org/2000/svg">
<path fill-rule="evenodd" clip-rule="evenodd" d="M17.6248 22.4368C16.5893 22.4368 15.7498 21.5973 15.7498 20.5618C15.7498 19.5263 16.5893 18.6868 17.6248 18.6868C18.6603 18.6868 19.4998 19.5263 19.4998 20.5618C19.4998 21.5973 18.6603 22.4368 17.6248 22.4368Z" stroke="#707070" stroke-width="1.5" stroke-linecap="round" stroke-linejoin="round"/>
<path fill-rule="evenodd" clip-rule="evenodd" d="M10.1249 22.3438C9.08937 22.3438 8.24992 21.5043 8.24992 20.4688C8.24992 19.4333 9.08937 18.5938 10.1249 18.5938C11.1604 18.5938 11.9999 19.4333 11.9999 20.4688C11.9999 21.5043 11.1604 22.3438 10.1249 22.3438Z" stroke="#707070" stroke-width="1.5" stroke-linecap="round" stroke-linejoin="round"/>
<path d="M23.2498 6.68693L20.9208 14.5739C20.7454 15.2305 20.1505 15.6872 19.4708 15.6868H8.65291C7.97213 15.6886 7.37557 15.2316 7.19993 14.5739L3.96196 2.41998C3.69952 1.43495 2.80737 0.749626 1.78798 0.749993H0.749992" stroke="#707070" stroke-width="1.5" stroke-linecap="round" stroke-linejoin="round"/>
</svg>
