<svg width="22" height="22" viewBox="0 0 22 22" fill="none" xmlns="http://www.w3.org/2000/svg">
<g clip-path="url(#clip0_10_532)">
<path fill-rule="evenodd" clip-rule="evenodd" d="M18.5625 4.125C18.5625 5.26409 17.639 6.1875 16.5 6.1875C15.3609 6.1875 14.4375 5.26409 14.4375 4.125C14.4375 2.98591 15.3609 2.0625 16.5 2.0625C17.639 2.0625 18.5625 2.98591 18.5625 4.125ZM20.625 4.125C20.625 6.40317 18.7782 8.25 16.5 8.25C15.3229 8.25 14.261 7.75697 13.5094 6.96614L8.11811 9.96128C8.2042 10.2931 8.25 10.6412 8.25 11C8.25 11.3588 8.20418 11.7069 8.1181 12.0388L13.5094 15.034C14.261 14.2431 15.3229 13.75 16.5 13.75C18.7782 13.75 20.625 15.5968 20.625 17.875C20.625 20.1532 18.7782 22 16.5 22C14.2218 22 12.375 20.1532 12.375 17.875C12.375 17.5163 12.4208 17.1683 12.5069 16.8363L7.11553 13.8412C6.364 14.6319 5.30207 15.125 4.125 15.125C1.84683 15.125 0 13.2782 0 11C0 8.72183 1.84683 6.875 4.125 6.875C5.3021 6.875 6.36402 7.36803 7.11557 8.15884L12.5069 5.16367C12.4208 4.83183 12.375 4.48377 12.375 4.125C12.375 1.84683 14.2218 0 16.5 0C18.7782 0 20.625 1.84683 20.625 4.125ZM18.5625 17.875C18.5625 19.014 17.639 19.9375 16.5 19.9375C15.3609 19.9375 14.4375 19.014 14.4375 17.875C14.4375 16.736 15.3609 15.8125 16.5 15.8125C17.639 15.8125 18.5625 16.736 18.5625 17.875ZM6.1875 11C6.1875 12.1391 5.26409 13.0625 4.125 13.0625C2.98591 13.0625 2.0625 12.1391 2.0625 11C2.0625 9.86091 2.98591 8.9375 4.125 8.9375C5.26409 8.9375 6.1875 9.86091 6.1875 11Z" fill="#545454" stroke="white" stroke-width="0.3"/>
</g>
<defs>
<clipPath id="clip0_10_532">
<rect width="22" height="22" fill="white"/>
</clipPath>
</defs>
</svg>
