<svg width="143" height="27" viewBox="0 0 143 27" fill="none" xmlns="http://www.w3.org/2000/svg">
<path d="M15.1193 6.47797C13.2696 10.0238 11.74 13.0241 11.74 13.0923C11.74 13.1605 13.0206 13.6378 14.5502 14.1493L17.3604 15.0357L17.1825 16.2972C16.8624 18.9566 16.1153 26.4233 16.1865 26.4915C16.2576 26.6279 27.3917 10.2284 27.3917 9.95562C27.3917 9.78515 26.289 9.34192 24.9017 8.89869C23.5499 8.48956 22.376 8.04633 22.3049 7.90995C22.1982 7.77357 23.0875 6.06884 24.2258 4.09135C25.3641 2.11387 26.289 0.409136 26.3246 0.238662C26.3246 0.102284 24.5815 0 22.4116 0H18.4987L15.1193 6.47797Z" fill="#FFB209"/>
<path d="M48.5915 4.80737C45.8169 5.42108 44.1094 7.39856 44.1094 9.98975C44.1094 11.9672 45.39 13.2969 48.9117 15.0017C52.1843 16.57 52.789 17.2519 51.8997 18.3088C51.2594 19.0248 48.4137 18.718 47.0264 17.7633L45.9236 17.0473L44.7853 18.6157L43.647 20.2181L44.5007 20.8318C46.4928 22.2979 50.6547 22.9457 52.8958 22.1274C54.4254 21.5819 55.8127 20.1159 56.2396 18.6498C57.0577 15.7176 55.6348 13.8083 51.295 11.8991C48.556 10.6716 48.3425 10.5012 48.4492 9.64881C48.5204 8.93282 48.805 8.66006 49.6943 8.38731C50.6547 8.14865 51.1883 8.25093 52.6112 8.93282L54.3542 9.75109L55.1012 8.28502C55.5281 7.46675 55.8483 6.64848 55.8483 6.44392C55.8483 5.96659 53.1448 4.90966 51.4017 4.671C50.6191 4.60281 49.3741 4.6369 48.5915 4.80737Z" fill="white"/>
<path d="M0 13.4672V22.1614H2.13433H4.26866V18.9224V15.6834H7.11443H9.96021V13.9787V12.2739H7.11443H4.23309L4.3398 10.2964L4.44652 8.35305L7.75473 8.25077L11.0274 8.14848V6.47785V4.77312H5.51369H0V13.4672Z" fill="white"/>
<path d="M29.3829 13.4672L26.3593 22.1954L28.5292 22.0932L30.6991 21.9909L31.2326 20.1839L31.7662 18.3768L34.6476 18.4791L37.5289 18.5814L38.0625 20.3543L38.5961 22.1613H40.8016H43.007L39.9123 13.4672L36.8175 4.77309H34.612H32.4421L29.3829 13.4672ZM35.7147 12.3421L36.5685 15.3424H34.6476C33.5804 15.3424 32.7267 15.3083 32.7267 15.2401C32.7267 15.1719 32.9401 14.3537 33.2247 13.4331C33.5093 12.5126 33.9361 11.0806 34.1851 10.2282C34.3986 9.37586 34.6476 8.83035 34.7187 9.03492C34.7899 9.20539 35.2523 10.7056 35.7147 12.3421Z" fill="white"/>
<path d="M59.4049 13.4672V22.1614H61.5392H63.6736V18.7519V15.3424H67.0529H70.4323V18.7519V22.1614H72.5666H74.701V13.4672V4.77312H72.5666H70.4323V8.35305V11.933H67.0529H63.6736V8.35305V4.77312H61.5392H59.4049V13.4672Z" fill="white"/>
<path d="M88.3968 5.25048C86.049 6.27332 84.7328 8.76223 85.4087 11.0807C85.9423 12.8536 86.7249 13.5696 89.9975 15.1038C92.7721 16.4335 93.0211 16.604 93.0211 17.5586C93.0211 18.5815 92.9856 18.5815 91.0647 18.5815C89.6418 18.5815 88.8236 18.3769 88.0055 17.8314L86.9383 17.1154L85.9067 18.6497L84.8751 20.218L85.8711 20.9681C87.1873 21.9568 89.1082 22.5024 91.4204 22.5024C94.9776 22.5024 97.1475 20.7294 97.3609 17.5927C97.5744 14.9334 96.7562 13.9787 92.8788 12.2058C89.4995 10.7056 89.0371 10.2624 89.6418 9.17136C90.1042 8.38719 92.5587 8.2849 93.9104 9.03498C95.2622 9.78507 95.4756 9.68278 96.2938 8.04624C97.1831 6.34151 97.0764 6.17104 94.8709 5.28458C93.3057 4.67087 89.8552 4.63678 88.3968 5.25048Z" fill="white"/>
<path d="M101.666 13.1945C100.065 17.8314 98.678 21.8546 98.6068 22.0591C98.5001 22.366 99.0693 22.5024 100.599 22.5024H102.698L103.231 20.6953L103.765 18.9224L106.788 18.8201L109.812 18.7179L110.31 20.5249L110.808 22.3319L112.871 22.4342C114.65 22.5364 114.899 22.4683 114.863 21.9227C114.863 21.5818 113.547 17.6268 111.946 13.1263L109.029 4.94363H106.788H104.581L101.666 13.1945ZM108.496 14.8993C108.496 15.2061 107.891 15.3425 106.682 15.3425C105.366 15.3425 104.903 15.2061 105.01 14.8993C105.117 14.6947 105.472 13.3991 105.828 12.1035C106.148 10.7738 106.504 9.47821 106.611 9.20546C106.788 8.72813 108.46 13.9105 108.496 14.8993Z" fill="white"/>
<path d="M117.389 13.6377V22.1614H123.259H129.128V20.6271V19.1269L125.322 19.0247L121.48 18.9224L121.373 12.0012L121.302 5.11406H119.346H117.389V13.6377Z" fill="white"/>
<path d="M130.906 13.6377V22.1614H136.953H143V20.6271V19.0929H138.909H134.818V17.2176V15.3424H137.842H140.866V13.6377V11.933H137.842H134.818V10.0578V8.18258H138.731H142.644V6.64832V5.11406H136.775H130.906V13.6377Z" fill="white"/>
</svg>
