<svg width="7" height="11" viewBox="0 0 7 11" fill="none" xmlns="http://www.w3.org/2000/svg">
<path d="M0.971866 0.160807L0.971876 0.161012L0.963792 0.160999C0.768295 0.160688 0.582097 0.216348 0.437448 0.313982C0.356318 0.368775 0.291498 0.43456 0.245053 0.506311C0.198708 0.57791 0.171322 0.654345 0.162618 0.731249C0.153924 0.80807 0.163788 0.885977 0.192458 0.961111C0.2212 1.03643 0.26879 1.10873 0.334581 1.17305L4.64575 5.37499L4.76077 5.48709L4.64791 5.60137L0.490549 9.81132L0.49055 9.81132L0.49002 9.81185C0.42524 9.87684 0.378814 9.94962 0.35131 10.0252C0.323874 10.1007 0.315288 10.1788 0.32533 10.2557C0.335385 10.3327 0.364207 10.4091 0.412045 10.4804C0.459981 10.5519 0.526281 10.6171 0.60874 10.6711L0.608819 10.671L0.614324 10.6749C0.696966 10.7341 0.795466 10.78 0.904098 10.8083C1.01271 10.8366 1.1279 10.8464 1.24211 10.8369C1.35634 10.8273 1.46588 10.7987 1.5638 10.7536C1.66173 10.7085 1.74483 10.6485 1.80911 10.5788L1.80905 10.5788L1.8129 10.5749L6.46106 5.871L6.46106 5.871L6.46224 5.86982C6.57679 5.7563 6.63392 5.62 6.63392 5.48534C6.63392 5.35083 6.57693 5.2147 6.46265 5.10125C6.46251 5.10112 6.46238 5.10098 6.46224 5.10085L1.65126 0.397769L1.65095 0.397474C1.57248 0.320348 1.47041 0.257157 1.35168 0.215207C1.23299 0.173267 1.10273 0.154387 0.971866 0.160807Z" fill="#545454" stroke="white" stroke-width="0.3"/>
</svg>
