<svg width="16" height="16" viewBox="0 0 16 16" fill="none" xmlns="http://www.w3.org/2000/svg">
<path d="M12.3222 11.1755C11.898 11.2768 11.4552 11.3305 10.9999 11.3305C7.87032 11.3305 5.33325 8.79406 5.33325 5.66525C5.33325 5.34301 5.36016 5.02706 5.41186 4.71951C5.38773 4.74271 5.3628 4.76408 5.33655 4.784C5.14947 4.92598 4.91649 4.97869 4.45051 5.0841L4.02628 5.18006C2.38649 5.55098 1.5666 5.73644 1.37153 6.36356C1.17647 6.99071 1.73542 7.64415 2.85332 8.95102L3.14253 9.28914C3.4602 9.66051 3.61904 9.8462 3.69049 10.0759C3.76195 10.3057 3.73794 10.5534 3.68991 11.049L3.64619 11.5001C3.47717 13.2437 3.39267 14.1156 3.90335 14.5032C4.41403 14.8907 5.1817 14.5374 6.71705 13.8307L7.11425 13.6478C7.55052 13.447 7.76865 13.3466 7.99992 13.3466C8.23119 13.3466 8.44932 13.447 8.88559 13.6478L9.28279 13.8307C10.8181 14.5374 11.5858 14.8907 12.0965 14.5032C12.6072 14.1156 12.5227 13.2437 12.3537 11.5001L12.3222 11.1755Z" fill="#FFC700"/>
<path opacity="0.5" d="M6.10203 3.60468L5.88356 3.99648C5.6436 4.42685 5.52362 4.64203 5.33655 4.784C5.3628 4.76407 5.38773 4.74271 5.41186 4.71951C5.36016 5.02706 5.33325 5.34301 5.33325 5.66525C5.33325 8.79406 7.87028 11.3305 10.9999 11.3305C11.4552 11.3305 11.8979 11.2768 12.3222 11.1755L12.3099 11.049C12.2619 10.5534 12.2379 10.3057 12.3093 10.0759C12.3808 9.8462 12.5396 9.66051 12.8573 9.28914L13.1465 8.95102C14.2644 7.64415 14.8233 6.99064 14.6283 6.36355C14.4332 5.73644 13.6133 5.55098 11.9735 5.18005L11.5493 5.08409C11.0833 4.97868 10.8503 4.92598 10.6633 4.784C10.4762 4.64203 10.3562 4.42685 10.1163 3.99649L9.89781 3.60467C9.05335 2.09022 8.63115 1.33299 7.99995 1.33299C7.36868 1.33299 6.94648 2.09022 6.10203 3.60468Z" fill="#FFC700"/>
</svg>
