<svg width="23" height="23" viewBox="0 0 23 23" fill="none" xmlns="http://www.w3.org/2000/svg">
<g clip-path="url(#clip0_10_865)">
<path fill-rule="evenodd" clip-rule="evenodd" d="M19.4062 4.3125C19.4062 5.50337 18.4408 6.46875 17.25 6.46875C16.0592 6.46875 15.0938 5.50337 15.0938 4.3125C15.0938 3.12163 16.0592 2.15625 17.25 2.15625C18.4408 2.15625 19.4062 3.12163 19.4062 4.3125ZM21.5625 4.3125C21.5625 6.69422 19.6318 8.625 17.25 8.625C16.0194 8.625 14.9092 8.10956 14.1235 7.28278L8.48711 10.4141C8.57712 10.761 8.625 11.1249 8.625 11.5C8.625 11.8751 8.5771 12.239 8.4871 12.586L14.1234 15.7173C14.9092 14.8905 16.0194 14.375 17.25 14.375C19.6318 14.375 21.5625 16.3057 21.5625 18.6875C21.5625 21.0693 19.6318 23 17.25 23C14.8682 23 12.9375 21.0693 12.9375 18.6875C12.9375 18.3125 12.9854 17.9486 13.0754 17.6016L7.43896 14.4703C6.65327 15.297 5.54307 15.8125 4.3125 15.8125C1.93078 15.8125 0 13.8817 0 11.5C0 9.11828 1.93078 7.1875 4.3125 7.1875C5.5431 7.1875 6.6533 7.70294 7.43901 8.52969L13.0754 5.39839C12.9854 5.05146 12.9375 4.68757 12.9375 4.3125C12.9375 1.93078 14.8682 0 17.25 0C19.6318 0 21.5625 1.93078 21.5625 4.3125ZM19.4062 18.6875C19.4062 19.8783 18.4408 20.8438 17.25 20.8438C16.0592 20.8438 15.0938 19.8783 15.0938 18.6875C15.0938 17.4967 16.0592 16.5312 17.25 16.5312C18.4408 16.5312 19.4062 17.4967 19.4062 18.6875ZM6.46875 11.5C6.46875 12.6909 5.50337 13.6562 4.3125 13.6562C3.12163 13.6562 2.15625 12.6909 2.15625 11.5C2.15625 10.3091 3.12163 9.34375 4.3125 9.34375C5.50337 9.34375 6.46875 10.3091 6.46875 11.5Z" fill="#707070" stroke="white" stroke-width="0.6"/>
</g>
<defs>
<clipPath id="clip0_10_865">
<rect width="23" height="23" fill="white"/>
</clipPath>
</defs>
</svg>
