<svg width="5" height="10" viewBox="0 0 5 10" fill="none" xmlns="http://www.w3.org/2000/svg">
<path d="M0.645504 0.101697L0.645488 0.101456C0.727775 0.0959166 0.810445 0.112075 0.887005 0.149192C0.96365 0.18635 1.0325 0.243735 1.08733 0.317667L1.08749 0.317871L4.27521 4.59357C4.27526 4.59365 4.27532 4.59373 4.27538 4.5938C4.35581 4.70328 4.40074 4.8421 4.40074 4.98666C4.40074 5.13132 4.35574 5.27024 4.27521 5.37975L4.27461 5.38056L4.27462 5.38056L1.1949 9.65679L1.19301 9.65942L1.19305 9.65945C1.14769 9.72693 1.09089 9.78237 1.02672 9.8229C0.962599 9.8634 0.892336 9.88826 0.820347 9.89653C0.748378 9.9048 0.675527 9.89638 0.606164 9.87158C0.536754 9.84677 0.471854 9.80589 0.415832 9.75079L0.41258 9.74759L0.412511 9.74767C0.357017 9.69784 0.310251 9.63566 0.275396 9.56435C0.240536 9.49303 0.218431 9.41427 0.21066 9.33262C0.20289 9.25098 0.209649 9.16848 0.230451 9.09C0.251253 9.01152 0.285579 8.939 0.331015 8.87646L0.331279 8.8761L0.331278 8.8761L3.08581 5.04887L3.12883 4.98909L3.08472 4.93011L0.228262 1.11012L0.645504 0.101697ZM0.645504 0.101697L0.638525 0.101682M0.645504 0.101697L0.638525 0.101682M0.638525 0.101682C0.516274 0.101415 0.396017 0.14891 0.298903 0.23885L0.638525 0.101682ZM1.08033 9.90778C1.15683 9.85946 1.22358 9.79398 1.27637 9.71546L0.345438 9.82237C0.411411 9.88725 0.488669 9.93619 0.572364 9.96611C0.65606 9.99604 0.744387 10.0063 0.831801 9.99627C0.919214 9.98623 1.00383 9.9561 1.08033 9.90778ZM0.298885 0.238867C0.244139 0.289602 0.198275 0.35249 0.164408 0.42428C0.130532 0.496086 0.109478 0.575077 0.102745 0.656699C0.0960126 0.738322 0.10377 0.820546 0.125462 0.898543C0.147139 0.976487 0.182193 1.04829 0.228175 1.11001L0.298885 0.238867Z" fill="#B2B2B2" stroke="#C3F5FB" stroke-width="0.2"/>
</svg>
