<svg width="26" height="25" viewBox="0 0 26 25" fill="none" xmlns="http://www.w3.org/2000/svg">
<g clip-path="url(#clip0_25_270)">
<path fill-rule="evenodd" clip-rule="evenodd" d="M14.0878 5.33946C11.4068 3.25765 7.5224 3.445 5.05833 5.90243C2.39006 8.5645 2.39006 12.8873 5.05833 15.5493L13.4378 23.9093C13.7942 24.2649 14.3713 24.2649 14.7277 23.9093L23.1072 15.5493C25.7755 12.8873 25.7755 8.5645 23.1072 5.90243C20.655 3.45592 16.7706 3.28312 14.0878 5.33946ZM14.0841 7.45674C14.4834 7.44947 14.6922 7.2221 14.725 7.1939C16.8718 5.32946 19.8674 5.24306 21.8182 7.18936C23.7745 9.14111 23.7745 12.3107 21.8182 14.2633L14.0823 21.9803L6.34734 14.2633C4.39104 12.3107 4.39104 9.14111 6.34734 7.18936C8.30456 5.23669 11.4824 5.2376 13.4396 7.19026C13.6101 7.36034 13.8426 7.45674 14.0841 7.45674Z" fill="#545454"/>
</g>
<defs>
<clipPath id="clip0_25_270">
<rect width="25.0583" height="25" fill="white"/>
</clipPath>
</defs>
</svg>
