<svg width="6" height="11" viewBox="0 0 6 11" fill="none" xmlns="http://www.w3.org/2000/svg">
<path d="M0.782647 0.161003L0.782628 0.160686C0.878214 0.154835 0.973882 0.171954 1.06191 0.210753L1.12627 0.06474L1.06191 0.210754C1.14996 0.249558 1.22801 0.309016 1.2896 0.384515L1.28986 0.384835L5.1468 5.08786C5.14691 5.088 5.14702 5.08813 5.14713 5.08827C5.23726 5.19989 5.2868 5.34019 5.2868 5.48533C5.2868 5.63064 5.23714 5.77112 5.1468 5.8828L5.14578 5.88406L5.14578 5.88407L1.41933 10.5879L1.41604 10.5921L1.41611 10.5921C1.36525 10.6609 1.30108 10.7181 1.22774 10.7602C1.15441 10.8023 1.07344 10.8285 0.989909 10.8372C0.906379 10.8459 0.821951 10.837 0.741887 10.811C0.661817 10.7849 0.58773 10.7423 0.524334 10.6856L0.518985 10.6809L0.518883 10.681C0.455969 10.6296 0.403508 10.566 0.364634 10.4937C0.325758 10.4214 0.301271 10.3419 0.29267 10.2597C0.284069 10.1776 0.291536 10.0945 0.314614 10.0154C0.337691 9.93623 0.375892 9.86264 0.426902 9.79882L0.427359 9.79824L0.427358 9.79824L3.76033 5.58829L3.84026 5.48733L3.75846 5.38788L0.302192 1.18596C0.302153 1.18591 0.302115 1.18586 0.302076 1.18581C0.250435 1.1228 0.211413 1.04992 0.187362 0.971304C0.163292 0.892624 0.15472 0.809834 0.162172 0.727708C0.169623 0.645584 0.19294 0.565854 0.230702 0.493087C0.268456 0.420336 0.319868 0.35604 0.381881 0.303793L0.782647 0.161003ZM0.782647 0.161003L0.772563 0.160983M0.782647 0.161003L0.772563 0.160983M0.772563 0.160983C0.630299 0.1607 0.492071 0.211024 0.381911 0.303767L0.772563 0.160983Z" fill="#545454" stroke="white" stroke-width="0.3"/>
</svg>
