<svg width="86" height="12" viewBox="0 0 86 12" fill="none" xmlns="http://www.w3.org/2000/svg">
<path fill-rule="evenodd" clip-rule="evenodd" d="M22.9613 0H21.82C21.1896 0 20.6786 0.447715 20.6786 1V9.66667C20.6786 10.219 21.1896 10.6667 21.82 10.6667H22.9613C23.5916 10.6667 24.1026 10.219 24.1026 9.66667V1C24.1026 0.447715 23.5916 0 22.9613 0ZM16.4937 2.33333H17.6351C18.2654 2.33333 18.7764 2.78105 18.7764 3.33333V9.66667C18.7764 10.219 18.2654 10.6667 17.6351 10.6667H16.4937C15.8634 10.6667 15.3524 10.219 15.3524 9.66667V3.33333C15.3524 2.78105 15.8634 2.33333 16.4937 2.33333ZM12.3088 4.66667H11.1675C10.5372 4.66667 10.0262 5.11438 10.0262 5.66667V9.66667C10.0262 10.219 10.5372 10.6667 11.1675 10.6667H12.3088C12.9392 10.6667 13.4502 10.219 13.4502 9.66667V5.66667C13.4502 5.11438 12.9392 4.66667 12.3088 4.66667ZM6.98262 6.66667H5.84128C5.21094 6.66667 4.69995 7.11438 4.69995 7.66667V9.66667C4.69995 10.219 5.21094 10.6667 5.84128 10.6667H6.98262C7.61296 10.6667 8.12395 10.219 8.12395 9.66667V7.66667C8.12395 7.11438 7.61296 6.66667 6.98262 6.66667Z" fill="black"/>
<path fill-rule="evenodd" clip-rule="evenodd" d="M38.8187 2.27733C41.3478 2.27742 43.7801 3.12886 45.6131 4.65566C45.7511 4.77354 45.9717 4.77205 46.1076 4.65233L47.427 3.48566C47.4958 3.42494 47.5342 3.34269 47.5336 3.25711C47.5331 3.17153 47.4936 3.08967 47.424 3.02966C42.6131 -1.00989 35.0235 -1.00989 30.2127 3.02966C30.143 3.08963 30.1034 3.17146 30.1028 3.25704C30.1021 3.34262 30.1405 3.42489 30.2092 3.48566L31.529 4.65233C31.6649 4.77223 31.8856 4.77372 32.0236 4.65566C33.8567 3.12876 36.2894 2.27732 38.8187 2.27733ZM38.8187 6.07299C40.2083 6.07292 41.5482 6.52545 42.5783 7.34266C42.7176 7.45864 42.937 7.45613 43.0728 7.33699L44.3907 6.17033C44.4601 6.10913 44.4986 6.02612 44.4976 5.93985C44.4966 5.85359 44.4562 5.77127 44.3854 5.71133C41.2488 3.15494 36.3913 3.15494 33.2547 5.71133C33.1838 5.77127 33.1434 5.85363 33.1425 5.93992C33.1416 6.02621 33.1802 6.10922 33.2498 6.17033L34.5672 7.33699C34.703 7.45613 34.9225 7.45864 35.0618 7.34266C36.0911 6.52599 37.4301 6.0735 38.8187 6.07299ZM41.4586 8.62681C41.4606 8.71332 41.4218 8.79672 41.3513 8.85733L39.0717 10.873C39.0049 10.9322 38.9138 10.9656 38.8187 10.9656C38.7236 10.9656 38.6325 10.9322 38.5657 10.873L36.2857 8.85733C36.2153 8.79668 36.1765 8.71325 36.1786 8.62674C36.1807 8.54023 36.2234 8.45831 36.2967 8.40033C37.7526 7.32144 39.8848 7.32144 41.3407 8.40033C41.4139 8.45836 41.4566 8.54031 41.4586 8.62681Z" fill="black"/>
<path opacity="0.35" d="M53.9337 2.66666C53.9337 1.41482 54.9485 0.4 56.2004 0.4H75.9764C77.2282 0.4 78.243 1.41482 78.243 2.66667V8.66667C78.243 9.91851 77.2282 10.9333 75.9764 10.9333H56.2004C54.9485 10.9333 53.9337 9.91851 53.9337 8.66667V2.66666Z" stroke="black" stroke-width="0.8"/>
<path opacity="0.4" d="M79.7844 3.66663V7.66663C80.7029 7.32785 81.3002 6.53976 81.3002 5.66663C81.3002 4.79349 80.7029 4.0054 79.7844 3.66663Z" fill="black"/>
<path d="M55.8164 3.33333C55.8164 2.59695 56.4134 2 57.1497 2H75.0271C75.7635 2 76.3604 2.59695 76.3604 3.33333V8C76.3604 8.73638 75.7635 9.33333 75.0271 9.33333H57.1497C56.4134 9.33333 55.8164 8.73638 55.8164 8V3.33333Z" fill="black"/>
</svg>
