<svg width="22" height="22" viewBox="0 0 22 22" fill="none" xmlns="http://www.w3.org/2000/svg">
<path fill-rule="evenodd" clip-rule="evenodd" d="M11.0028 4.52098C8.98082 2.9473 6.05138 3.08892 4.19307 4.94655C2.18076 6.95886 2.18076 10.2265 4.19307 12.2389L10.5126 18.5584C10.7814 18.8272 11.2166 18.8272 11.4854 18.5584L17.8049 12.2389C19.8172 10.2265 19.8172 6.95886 17.8049 4.94655C15.9555 3.09717 13.0261 2.96655 11.0028 4.52098ZM11 6.12148C11.3011 6.11598 11.4586 5.94411 11.4833 5.9228C13.1024 4.51342 15.3615 4.44811 16.8328 5.91936C18.3081 7.39473 18.3081 9.79067 16.8328 11.2667L10.9986 17.1002L5.1652 11.2667C3.68982 9.79067 3.68982 7.39473 5.1652 5.91936C6.64126 4.44329 9.03788 4.44398 10.5139 5.92005C10.6425 6.04861 10.8178 6.12148 11 6.12148Z" fill="#252525"/>
</svg>
