<svg width="6" height="11" viewBox="0 0 6 11" fill="none" xmlns="http://www.w3.org/2000/svg">
<path d="M0.77288 0.00141725C0.592612 0.00105913 0.417912 0.0648567 0.279106 0.181733C0.200983 0.247546 0.136405 0.328376 0.0890704 0.419589C0.041736 0.510802 0.0125753 0.610606 0.00325847 0.713289C-0.00605834 0.815972 0.00465195 0.919513 0.0347757 1.01798C0.0648993 1.11645 0.113844 1.20792 0.178808 1.28714L3.63523 5.48925L0.302252 9.6992C0.238165 9.77939 0.190306 9.87166 0.161426 9.97071C0.132547 10.0698 0.123216 10.1736 0.133971 10.2763C0.144725 10.3791 0.175352 10.4786 0.224092 10.5693C0.272832 10.6599 0.338724 10.7399 0.41798 10.8046C0.497806 10.876 0.591289 10.9298 0.69256 10.9627C0.793832 10.9956 0.900707 11.0069 1.00648 10.9959C1.11225 10.9849 1.21463 10.9517 1.3072 10.8986C1.39977 10.8454 1.48053 10.7734 1.5444 10.687L5.27086 5.98315C5.38433 5.84287 5.44637 5.66692 5.44637 5.48533C5.44637 5.30374 5.38433 5.12778 5.27086 4.9875L1.41324 0.28365C1.33585 0.188774 1.23753 0.113777 1.12627 0.06474C1.01501 0.0157024 0.893937 -0.00599161 0.77288 0.00141725Z" fill="black"/>
</svg>
