<svg width="11" height="6" viewBox="0 0 11 6" fill="none" xmlns="http://www.w3.org/2000/svg">
<path d="M10.8389 0.782644L10.8393 0.782624C10.8451 0.87821 10.828 0.973878 10.7892 1.06191L10.9352 1.12626L10.7892 1.06191C10.7504 1.14995 10.6909 1.22801 10.6154 1.2896L10.6151 1.28986L5.91212 5.14678C5.91198 5.14689 5.91184 5.147 5.9117 5.14711C5.80009 5.23724 5.65978 5.28678 5.51465 5.28678C5.36933 5.28678 5.22886 5.23712 5.11718 5.14678L5.11591 5.14575L5.11591 5.14576L0.412076 1.41932L0.407923 1.41603L0.407871 1.4161C0.339096 1.36524 0.281927 1.30107 0.239815 1.22774C0.197709 1.15441 0.171529 1.07344 0.162808 0.989905C0.154088 0.906375 0.162999 0.821947 0.189023 0.741884C0.21505 0.661814 0.257669 0.587728 0.314349 0.524332L0.319132 0.518983L0.319007 0.518881C0.370362 0.455967 0.433976 0.403506 0.506281 0.364632C0.578591 0.325756 0.65811 0.301269 0.740264 0.292668C0.822419 0.284067 0.905475 0.291535 0.984623 0.314612C1.06377 0.337689 1.13735 0.37589 1.20118 0.4269L1.20175 0.427357L1.20175 0.427356L5.41168 3.76032L5.51264 3.84025L5.61209 3.75845L9.814 0.302191C9.81405 0.302152 9.81409 0.302113 9.81414 0.302075C9.87715 0.250434 9.95003 0.211412 10.0287 0.187361C10.1073 0.163291 10.1901 0.15472 10.2722 0.162171C10.3544 0.169623 10.4341 0.192939 10.5069 0.230701C10.5796 0.268454 10.6439 0.319866 10.6962 0.38188L10.8389 0.782644ZM10.8389 0.782644L10.839 0.77256M10.8389 0.782644L10.839 0.77256M10.839 0.77256C10.8393 0.630296 10.7889 0.492069 10.6962 0.38191L10.839 0.77256Z" fill="#198BE7" stroke="white" stroke-width="0.3"/>
</svg>
