<svg width="25" height="25" viewBox="0 0 25 25" fill="none" xmlns="http://www.w3.org/2000/svg">
<g clip-path="url(#clip0_10_529)">
<path fill-rule="evenodd" clip-rule="evenodd" d="M14.0548 5.33946C11.38 3.25765 7.50469 3.445 5.04635 5.90243C2.38429 8.5645 2.38429 12.8873 5.04635 15.5493L13.4063 23.9093C13.762 24.2649 14.3377 24.2649 14.6933 23.9093L23.0533 15.5493C25.7153 12.8873 25.7153 8.5645 23.0533 5.90243C20.6067 3.45592 16.7314 3.28312 14.0548 5.33946ZM14.0512 7.45674C14.4495 7.44947 14.6578 7.2221 14.6905 7.1939C16.8324 5.32946 19.8209 5.24306 21.7672 7.18936C23.719 9.14111 23.719 12.3107 21.7672 14.2633L14.0493 21.9803L6.33237 14.2633C4.38061 12.3107 4.38061 9.14111 6.33237 7.18936C8.28503 5.23669 11.4555 5.2376 13.4082 7.19026C13.5782 7.36034 13.8102 7.45674 14.0512 7.45674Z" fill="#545454"/>
</g>
<defs>
<clipPath id="clip0_10_529">
<rect width="25" height="25" fill="white"/>
</clipPath>
</defs>
</svg>
