<svg width="24" height="24" viewBox="0 0 24 24" fill="none" xmlns="http://www.w3.org/2000/svg">
<path fill-rule="evenodd" clip-rule="evenodd" d="M17.625 22.843C16.5895 22.843 15.75 22.0036 15.75 20.968C15.75 19.9325 16.5895 19.093 17.625 19.093C18.6605 19.093 19.5 19.9325 19.5 20.968C19.5 22.0036 18.6605 22.843 17.625 22.843Z" stroke="#707070" stroke-width="1.5" stroke-linecap="round" stroke-linejoin="round"/>
<path fill-rule="evenodd" clip-rule="evenodd" d="M10.125 22.75C9.08947 22.75 8.25 21.9105 8.25 20.875C8.25 19.8395 9.08947 19 10.125 19C11.1605 19 12 19.8395 12 20.875C12 21.9105 11.1605 22.75 10.125 22.75Z" stroke="#707070" stroke-width="1.5" stroke-linecap="round" stroke-linejoin="round"/>
<path d="M23.25 7.09301L20.921 14.98C20.7456 15.6367 20.1507 16.0934 19.471 16.093H8.653C7.97221 16.0947 7.37564 15.6377 7.2 14.98L3.962 2.82601C3.69956 1.84097 2.8074 1.15564 1.788 1.15601H0.75" stroke="#707070" stroke-width="1.5" stroke-linecap="round" stroke-linejoin="round"/>
</svg>
