<svg width="18" height="18" viewBox="0 0 18 18" fill="none" xmlns="http://www.w3.org/2000/svg">
<path fill-rule="evenodd" clip-rule="evenodd" d="M18 16.9179L12.8595 11.6955C15.1707 8.61804 14.7065 4.23969 11.8032 1.73277C8.90086 -0.77439 4.57333 -0.533921 1.9565 2.27943C-0.659613 5.0935 -0.651229 9.49643 1.97614 12.3003C4.60423 15.1039 8.93176 15.3264 11.8248 12.808L16.9353 18L18 16.9179ZM7.17987 13.0295C4.89982 13.0304 2.84324 11.6346 1.97017 9.49446C1.09733 7.35433 1.57902 4.89001 3.19127 3.25102C4.80329 1.61203 7.22754 1.12233 9.33466 2.00851C11.4418 2.89542 12.8155 4.9842 12.8155 7.30127C12.8126 10.4624 10.2918 13.0256 7.17987 13.0295Z" fill="#707070"/>
</svg>
