<svg width="23" height="22" viewBox="0 0 23 22" fill="none" xmlns="http://www.w3.org/2000/svg">
<g clip-path="url(#clip0_25_273)">
<path fill-rule="evenodd" clip-rule="evenodd" d="M18.6058 4.125C18.6058 5.26409 17.6802 6.1875 16.5385 6.1875C15.3968 6.1875 14.4712 5.26409 14.4712 4.125C14.4712 2.98591 15.3968 2.0625 16.5385 2.0625C17.6802 2.0625 18.6058 2.98591 18.6058 4.125ZM20.6731 4.125C20.6731 6.40317 18.822 8.25 16.5385 8.25C15.3586 8.25 14.2942 7.75697 13.5409 6.96614L8.13703 9.96128C8.22332 10.2931 8.26923 10.6412 8.26923 11C8.26923 11.3588 8.22331 11.7069 8.13702 12.0388L13.5409 15.034C14.2942 14.2431 15.3586 13.75 16.5385 13.75C18.822 13.75 20.6731 15.5968 20.6731 17.875C20.6731 20.1532 18.822 22 16.5385 22C14.2549 22 12.4038 20.1532 12.4038 17.875C12.4038 17.5163 12.4498 17.1683 12.536 16.8363L7.13211 13.8412C6.37883 14.6319 5.31443 15.125 4.13461 15.125C1.85114 15.125 0 13.2782 0 11C0 8.72183 1.85114 6.875 4.13461 6.875C5.31446 6.875 6.37886 7.36803 7.13216 8.15884L12.536 5.16367C12.4498 4.83183 12.4038 4.48377 12.4038 4.125C12.4038 1.84683 14.2549 0 16.5385 0C18.822 0 20.6731 1.84683 20.6731 4.125ZM18.6058 17.875C18.6058 19.014 17.6802 19.9375 16.5385 19.9375C15.3968 19.9375 14.4712 19.014 14.4712 17.875C14.4712 16.736 15.3968 15.8125 16.5385 15.8125C17.6802 15.8125 18.6058 16.736 18.6058 17.875ZM6.20192 11C6.20192 12.1391 5.27636 13.0625 4.13461 13.0625C2.99287 13.0625 2.06731 12.1391 2.06731 11C2.06731 9.86091 2.99287 8.9375 4.13461 8.9375C5.27636 8.9375 6.20192 9.86091 6.20192 11Z" fill="#545454" stroke="white" stroke-width="0.3"/>
</g>
<defs>
<clipPath id="clip0_25_273">
<rect width="22.0513" height="22" fill="white"/>
</clipPath>
</defs>
</svg>
