<svg width="36" height="35" viewBox="0 0 36 35" fill="none" xmlns="http://www.w3.org/2000/svg">
<path d="M22.4403 27.2625H8.33637C6.97165 27.2625 5.66283 26.7186 4.69782 25.7505C3.73282 24.7822 3.19067 23.4691 3.19067 22.1V7.94998C3.19067 6.5808 3.73282 5.26769 4.69782 4.29954C5.66283 3.33138 6.97165 2.78748 8.33637 2.78748H22.4403C23.805 2.78748 25.1138 3.33138 26.0789 4.29954C27.0439 5.26769 27.586 6.5808 27.586 7.94998V22.1C27.586 23.4691 27.0439 24.7822 26.0789 25.7505C25.1138 26.7186 23.805 27.2625 22.4403 27.2625ZM8.33637 4.66248C7.46731 4.66248 6.63384 5.00884 6.01933 5.62536C5.40481 6.24189 5.05957 7.07808 5.05957 7.94998V22.1C5.05957 22.9719 5.40481 23.8081 6.01933 24.4246C6.63384 25.0411 7.46731 25.3875 8.33637 25.3875H22.4403C23.3094 25.3875 24.1429 25.0411 24.7574 24.4246C25.3719 23.8081 25.7171 22.9719 25.7171 22.1V7.94998C25.7171 7.07808 25.3719 6.24189 24.7574 5.62536C24.1429 5.00884 23.3094 4.66248 22.4403 4.66248H8.33637Z" fill="#8E8E8E" stroke="white"/>
</svg>
