<svg width="24" height="24" viewBox="0 0 24 24" fill="none" xmlns="http://www.w3.org/2000/svg">
<g clip-path="url(#clip0_13_1556)">
<path fill-rule="evenodd" clip-rule="evenodd" d="M20.25 4.5C20.25 5.74264 19.2426 6.75 18 6.75C16.7574 6.75 15.75 5.74264 15.75 4.5C15.75 3.25735 16.7574 2.25 18 2.25C19.2426 2.25 20.25 3.25735 20.25 4.5ZM22.5 4.5C22.5 6.98527 20.4853 9 18 9C16.7159 9 15.5574 8.46214 14.7375 7.59942L8.85612 10.8669C8.95004 11.2289 9 11.6086 9 12C9 12.3914 8.95002 12.7712 8.8561 13.1332L14.7375 16.4007C15.5574 15.5379 16.7159 15 18 15C20.4853 15 22.5 17.0147 22.5 19.5C22.5 21.9853 20.4853 24 18 24C15.5147 24 13.5 21.9853 13.5 19.5C13.5 19.1087 13.55 18.729 13.6438 18.3669L7.76239 15.0995C6.94254 15.9621 5.78407 16.5 4.5 16.5C2.01472 16.5 0 14.4853 0 12C0 9.51472 2.01472 7.5 4.5 7.5C5.7841 7.5 6.94257 8.03786 7.76244 8.90055L13.6439 5.6331C13.55 5.27109 13.5 4.89138 13.5 4.5C13.5 2.01472 15.5147 0 18 0C20.4853 0 22.5 2.01472 22.5 4.5ZM20.25 19.5C20.25 20.7426 19.2426 21.75 18 21.75C16.7574 21.75 15.75 20.7426 15.75 19.5C15.75 18.2574 16.7574 17.25 18 17.25C19.2426 17.25 20.25 18.2574 20.25 19.5ZM6.75 12C6.75 13.2426 5.74264 14.25 4.5 14.25C3.25735 14.25 2.25 13.2426 2.25 12C2.25 10.7574 3.25735 9.75 4.5 9.75C5.74264 9.75 6.75 10.7574 6.75 12Z" fill="#707070" stroke="white" stroke-width="0.6"/>
</g>
<defs>
<clipPath id="clip0_13_1556">
<rect width="24" height="24" fill="white"/>
</clipPath>
</defs>
</svg>
