<svg width="31" height="31" viewBox="0 0 31 31" fill="none" xmlns="http://www.w3.org/2000/svg">
<path d="M4.07504 13.662V13.5892L4.02821 13.5334C3.25874 12.617 2.78337 11.4259 2.78337 10.1151V6.45837C2.78337 4.43241 4.43241 2.78337 6.45837 2.78337H24.5417C26.5677 2.78337 28.2167 4.43241 28.2167 6.45837V10.1138C28.2167 11.426 27.7413 12.617 26.972 13.532L26.925 13.5878V13.6607V24.5417C26.925 25.856 25.856 26.925 24.5417 26.925H6.45837C5.14412 26.925 4.07504 25.856 4.07504 24.5417V13.662ZM23.3945 13.1141L23.3945 13.1142L23.4014 13.1138C24.8684 13.0364 26.0334 11.6784 26.0334 10.1151V6.45837C26.0334 5.63634 25.3653 4.96671 24.5417 4.96671H20.6667H20.4667V5.16671V10.3334C20.4667 11.8685 21.7149 13.1167 23.25 13.1167V13.1167L23.2537 13.1167L23.3945 13.1141ZM12.9167 4.96671H12.7167V5.16671V10.3334C12.7167 11.8685 13.9649 13.1167 15.5 13.1167C17.0352 13.1167 18.2834 11.8685 18.2834 10.3334V5.16671V4.96671H18.0834H12.9167ZM10.5334 5.16671V4.96671H10.3334H6.45837C5.63479 4.96671 4.96671 5.63634 4.96671 6.45837V10.1151C4.96671 11.6783 6.13171 13.0365 7.5989 13.1126L7.59889 13.1126L7.60374 13.1128L7.74454 13.1166L7.74453 13.1167H7.75004C9.28521 13.1167 10.5334 11.8685 10.5334 10.3334V5.16671ZM12.7167 24.5417V24.7417H12.9167H18.0834H18.2834V24.5417V20.6667V20.4667H18.0834H12.9167H12.7167V20.6667V24.5417ZM20.4667 24.5417V24.7417H20.6667H24.5417H24.7417V24.5417V15.3308V15.0712L24.4907 15.1374C24.1746 15.2208 23.8498 15.2753 23.5148 15.2926L23.5143 15.2926C22.7658 15.3332 22.0179 15.2033 21.3269 14.9128C20.6359 14.6222 20.0199 14.1786 19.5253 13.6153L19.3753 13.4444L19.225 13.615C18.3145 14.6485 16.9811 15.3 15.5 15.3C14.019 15.3 12.6856 14.6485 11.7751 13.615L11.6248 13.4444L11.4747 13.6153C10.9802 14.1786 10.3642 14.6222 9.67319 14.9128C8.9822 15.2033 8.23425 15.3332 7.48575 15.2926L7.48527 15.2926C7.15149 15.2753 6.82542 15.2208 6.50939 15.1374L6.25837 15.0712V15.3308V24.5417V24.7417H6.45837H10.3334H10.5334V24.5417V20.6667C10.5334 19.3525 11.6025 18.2834 12.9167 18.2834H18.0834C19.3976 18.2834 20.4667 19.3525 20.4667 20.6667V24.5417Z" fill="#545454" stroke="white" stroke-width="0.4"/>
</svg>
