<svg width="5" height="10" viewBox="0 0 5 10" fill="none" xmlns="http://www.w3.org/2000/svg">
<path d="M0.688693 0.101696L0.68868 0.101484C0.779022 0.0957902 0.869509 0.11244 0.952879 0.150275C1.03627 0.188121 1.11042 0.24621 1.16904 0.320208L1.1692 0.32041L4.57462 4.59611C4.57468 4.59618 4.57473 4.59626 4.57479 4.59632C4.66071 4.70579 4.70813 4.84373 4.70813 4.98666C4.70813 5.12969 4.66065 5.26771 4.57462 5.37721L4.57399 5.37801L4.574 5.37801L1.28396 9.65424L1.28195 9.65686L1.28199 9.6569C1.23355 9.72434 1.17255 9.78025 1.10301 9.82136C1.03349 9.86247 0.956841 9.88796 0.877875 9.89645C0.798914 9.90494 0.719082 9.89627 0.643316 9.87091C0.567537 9.84555 0.497267 9.80397 0.437024 9.74851L0.433689 9.74544L0.433624 9.74552C0.373863 9.69529 0.323908 9.63296 0.286839 9.56197C0.249767 9.49097 0.226376 9.4128 0.218158 9.33198C0.20994 9.25115 0.217079 9.16945 0.239115 9.09163C0.261151 9.01381 0.297598 8.94158 0.346162 8.87901L0.346442 8.87865L0.346441 8.87864L3.28908 5.05142L3.33704 4.98904L3.28793 4.92757L0.236397 1.10758L0.688693 0.101696ZM0.688693 0.101696L0.68216 0.101682M0.688693 0.101696L0.68216 0.101682M0.68216 0.101682C0.547739 0.101407 0.41681 0.150355 0.312183 0.241066M0.68216 0.101682L0.312183 0.241066M0.312183 0.241066C0.253264 0.29218 0.204295 0.355185 0.168289 0.426629M0.312183 0.241066L0.168289 0.426629M0.168289 0.426629C0.132276 0.498086 0.110001 0.576462 0.102882 0.657258M0.168289 0.426629L0.102882 0.657258M0.102882 0.657258C0.0957616 0.738057 0.103955 0.819494 0.126938 0.89685M0.102882 0.657258L0.126938 0.89685M0.126938 0.89685C0.149904 0.974154 0.187137 1.0457 0.236305 1.10747L0.126938 0.89685Z" fill="#B2B2B2" stroke="#C3F5FB" stroke-width="0.2"/>
</svg>
