<svg width="132" height="26" viewBox="0 0 132 26" fill="none" xmlns="http://www.w3.org/2000/svg">
<path d="M13.8781 6.35758C12.1802 9.83752 10.7761 12.7821 10.7761 12.849C10.7761 12.9159 11.9516 13.3844 13.3556 13.8863L15.9352 14.7563L15.7719 15.9943C15.478 18.6043 14.7923 25.9322 14.8576 25.9992C14.9229 26.133 25.143 10.0383 25.143 9.7706C25.143 9.6033 24.1308 9.1683 22.8574 8.73331C21.6166 8.33178 20.5391 7.89679 20.4738 7.76294C20.3758 7.6291 21.1921 5.95605 22.237 4.01532C23.2819 2.07458 24.1308 0.401531 24.1635 0.234226C24.1635 0.100382 22.5635 0 20.5717 0H16.98L13.8781 6.35758Z" fill="#FFB209"/>
<path d="M44.6026 4.71801C42.0557 5.32031 40.4884 7.26104 40.4884 9.80408C40.4884 11.7448 41.6639 13.0498 44.8965 14.7228C47.9005 16.262 48.4555 16.9313 47.6392 17.9686C47.0515 18.6712 44.4393 18.3701 43.1659 17.4332L42.1537 16.7305L41.1088 18.2697L40.064 19.8424L40.8476 20.4447C42.6761 21.8835 46.4964 22.5192 48.5535 21.7162C49.9575 21.1808 51.231 19.742 51.6228 18.3032C52.3738 15.4255 51.0677 13.5517 47.0842 11.6779C44.57 10.4733 44.374 10.306 44.472 9.46947C44.5373 8.76679 44.7985 8.4991 45.6148 8.23141C46.4964 7.99719 46.9862 8.09757 48.2923 8.76679L49.8922 9.56985L50.5779 8.13103C50.9698 7.32797 51.2636 6.5249 51.2636 6.32414C51.2636 5.85568 48.7821 4.81839 47.1821 4.58417C46.4638 4.51725 45.3209 4.55071 44.6026 4.71801Z" fill="white"/>
<path d="M0 13.217V21.7495H1.95912H3.91825V18.5707V15.3919H6.53042H9.14258V13.7189V12.0458H6.53042H3.8856L3.98355 10.1051L4.08151 8.19782L7.11815 8.09744L10.1221 7.99706V6.35747V4.68442H5.06107H0V13.217Z" fill="white"/>
<path d="M26.971 13.217L24.1956 21.783L26.1873 21.6826L28.1791 21.5822L28.6689 19.8088L29.1587 18.0353L31.8035 18.1357L34.4483 18.2361L34.9381 19.9761L35.4279 21.7495H37.4523H39.4767L36.636 13.217L33.7953 4.6844H31.7708H29.7791L26.971 13.217ZM32.7831 12.1127L33.5667 15.0573H31.8035C30.8239 15.0573 30.0403 15.0238 30.0403 14.9569C30.0403 14.89 30.2362 14.0869 30.4974 13.1835C30.7586 12.28 31.1504 10.8747 31.379 10.0382C31.5749 9.20164 31.8035 8.66626 31.8688 8.86703C31.9341 9.03433 32.3586 10.5066 32.7831 12.1127Z" fill="white"/>
<path d="M54.5283 13.217V21.7495H56.4874H58.4466V18.4034V15.0573H61.5485H64.6505V18.4034V21.7495H66.6096H68.5687V13.217V4.68442H66.6096H64.6505V8.19782V11.7112H61.5485H58.4466V8.19782V4.68442H56.4874H54.5283V13.217Z" fill="white"/>
<path d="M81.1403 5.15286C78.9852 6.15669 77.7771 8.59934 78.3975 10.8747C78.8873 12.6147 79.6056 13.3173 82.6096 14.8231C85.1565 16.1281 85.385 16.2954 85.385 17.2323C85.385 18.2361 85.3524 18.2361 83.5892 18.2361C82.2831 18.2361 81.5321 18.0353 80.7811 17.5L79.8015 16.7973L78.8546 18.303L77.9077 19.8422L78.822 20.5784C80.0301 21.5487 81.7933 22.0841 83.9157 22.0841C87.1809 22.0841 89.1727 20.3441 89.3686 17.2657C89.5645 14.6558 88.8135 13.7189 85.2544 11.9789C82.1525 10.5066 81.728 10.0716 82.2831 9.00087C82.7076 8.23127 84.9606 8.13088 86.2013 8.86702C87.4421 9.60317 87.638 9.50278 88.389 7.89666C89.2053 6.22361 89.1074 6.0563 87.0829 5.18632C85.6463 4.58402 82.479 4.55056 81.1403 5.15286Z" fill="white"/>
<path d="M93.3203 12.9493C91.8509 17.5 90.5775 21.4483 90.5122 21.6491C90.4143 21.9503 90.9367 22.0841 92.3407 22.0841H94.2672L94.757 20.3107L95.2468 18.5707L98.0222 18.4703L100.798 18.3699L101.255 20.1434L101.712 21.9168L103.606 22.0172C105.238 22.1176 105.467 22.0506 105.434 21.5153C105.434 21.1807 104.226 17.2992 102.757 12.8823L100.079 4.85171H98.0222H95.9957L93.3203 12.9493ZM99.5895 14.6223C99.5895 14.9235 99.0344 15.0573 97.9242 15.0573C96.7161 15.0573 96.2916 14.9235 96.3896 14.6223C96.4875 14.4215 96.8141 13.15 97.1406 11.8785C97.4344 10.5735 97.761 9.30202 97.8589 9.03433C98.0222 8.56587 99.5568 13.6519 99.5895 14.6223Z" fill="white"/>
<path d="M107.753 13.3843V21.7495H113.141H118.528V20.2438V18.7715L115.034 18.6711L111.508 18.5707L111.41 11.7781L111.345 5.01903H109.549H107.753V13.3843Z" fill="white"/>
<path d="M120.16 13.3843V21.7495H125.711H131.261V20.2438V18.738H127.506H123.751V16.8977V15.0573H126.527H129.302V13.3843V11.7112H126.527H123.751V9.87087V8.03051H127.343H130.935V6.52477V5.01903H125.547H120.16V13.3843Z" fill="white"/>
</svg>
