<svg width="33" height="35" viewBox="0 0 33 35" fill="none" xmlns="http://www.w3.org/2000/svg">
<path d="M20.8339 27.2625H7.7397C6.47269 27.2625 5.25757 26.7186 4.36164 25.7505C3.46573 24.7822 2.9624 23.4691 2.9624 22.1V7.94998C2.9624 6.5808 3.46573 5.26769 4.36164 4.29954C5.25757 3.33138 6.47269 2.78748 7.7397 2.78748H20.8339C22.1009 2.78748 23.316 3.33138 24.212 4.29954C25.1079 5.26769 25.6112 6.5808 25.6112 7.94998V22.1C25.6112 23.4691 25.1079 24.7822 24.212 25.7505C23.316 26.7186 22.1009 27.2625 20.8339 27.2625ZM7.7397 4.66248C6.93286 4.66248 6.15906 5.00884 5.58854 5.62536C5.01802 6.24189 4.6975 7.07808 4.6975 7.94998V22.1C4.6975 22.9719 5.01802 23.8081 5.58854 24.4246C6.15906 25.0411 6.93286 25.3875 7.7397 25.3875H20.8339C21.6407 25.3875 22.4146 25.0411 22.9851 24.4246C23.5556 23.8081 23.8761 22.9719 23.8761 22.1V7.94998C23.8761 7.07808 23.5556 6.24189 22.9851 5.62536C22.4146 5.00884 21.6407 4.66248 20.8339 4.66248H7.7397Z" fill="#8E8E8E" stroke="white"/>
</svg>
