<svg width="24" height="24" viewBox="0 0 24 24" fill="none" xmlns="http://www.w3.org/2000/svg">
<path d="M15.5659 2.2521L15.5736 2.25257L15.5814 2.25255C15.854 2.25202 16.1181 2.34693 16.328 2.52082C16.4461 2.61876 16.5437 2.73903 16.6153 2.87476C16.6869 3.01049 16.731 3.159 16.7451 3.3118C16.7592 3.46459 16.743 3.61867 16.6974 3.76519C16.6519 3.91172 16.5779 4.04782 16.4796 4.1657L10.1336 11.7583L10.0021 11.9156L10.1306 12.0753L16.2502 19.6824L16.2502 19.6824L16.251 19.6833C16.3479 19.8026 16.4202 19.9399 16.4639 20.0873C16.5076 20.2347 16.5217 20.3892 16.5054 20.5421C16.4892 20.6949 16.4429 20.8431 16.3692 20.978C16.2955 21.1129 16.1958 21.2319 16.076 21.3281L16.0758 21.3279L16.0674 21.3353C15.9467 21.4415 15.8054 21.5217 15.6522 21.5706C15.4991 21.6196 15.3375 21.6364 15.1776 21.62C15.0176 21.6036 14.8628 21.5542 14.7229 21.4752C14.5829 21.3961 14.4608 21.2889 14.3642 21.1604L14.3643 21.1603L14.3591 21.1538L7.517 12.6543L7.51701 12.6543L7.51538 12.6523C7.3438 12.4436 7.25 12.1817 7.25 11.9115C7.25 11.6416 7.3436 11.38 7.51484 11.1714C7.51502 11.1712 7.5152 11.171 7.51538 11.1708L14.5972 2.67257L14.5976 2.67207C14.7147 2.53089 14.8633 2.41929 15.0316 2.34632C15.1998 2.27336 15.3829 2.24107 15.5659 2.2521Z" fill="#707070" stroke="white" stroke-width="0.5"/>
</svg>
