<svg width="10" height="20" viewBox="0 0 10 20" fill="none" xmlns="http://www.w3.org/2000/svg">
<path d="M8.56589 0.252096L8.57365 0.252563L8.58141 0.252548C8.85397 0.252016 9.1181 0.346933 9.32798 0.520824C9.4461 0.618753 9.54375 0.739031 9.61532 0.874762C9.68689 1.01049 9.73099 1.159 9.74507 1.3118C9.75916 1.46459 9.74297 1.61866 9.69742 1.76519C9.65187 1.91172 9.57786 2.04782 9.47963 2.1657L3.13359 9.75829L3.00211 9.91559L3.13062 10.0753L9.25025 17.6824L9.25025 17.6824L9.25097 17.6833C9.34787 17.8026 9.42024 17.9399 9.46391 18.0873C9.50757 18.2347 9.52168 18.3892 9.50542 18.5421C9.48916 18.6949 9.44285 18.8431 9.36915 18.978C9.29546 19.1129 9.19582 19.2319 9.07598 19.3281L9.07583 19.3279L9.06741 19.3353C8.94671 19.4415 8.80536 19.5217 8.65223 19.5706C8.4991 19.6196 8.3375 19.6364 8.17757 19.62C8.01764 19.6036 7.86283 19.5542 7.72286 19.4752C7.58289 19.3961 7.46079 19.2889 7.3642 19.1604L7.36431 19.1603L7.35908 19.1538L0.516996 10.6543L0.517007 10.6543L0.515384 10.6523C0.343801 10.4436 0.25 10.1817 0.25 9.91153C0.25 9.64161 0.343602 9.38005 0.514838 9.17142C0.51502 9.1712 0.515202 9.17097 0.515384 9.17075L7.59722 0.672567L7.59763 0.672066C7.71466 0.53089 7.86332 0.419291 8.03155 0.346321C8.19979 0.273354 8.38285 0.241072 8.56589 0.252096Z" fill="#707070" stroke="white" stroke-width="0.5"/>
</svg>
