<svg width="24" height="24" viewBox="0 0 24 24" fill="none" xmlns="http://www.w3.org/2000/svg">
<path d="M10.5152 13.4849L10.303 13.697L10.5152 13.4849C10.1213 13.091 9.9001 12.5569 9.9001 12C9.9001 11.443 10.1213 10.9089 10.5152 10.515C10.909 10.1212 11.4431 9.89995 12.0001 9.89995C12.5571 9.89995 13.0912 10.1212 13.485 10.515C13.8788 10.9089 14.1001 11.443 14.1001 12C14.1001 12.5569 13.8788 13.091 13.485 13.4849C13.0912 13.8787 12.5571 14.1 12.0001 14.1C11.4431 14.1 10.909 13.8787 10.5152 13.4849ZM13.485 2.11503C13.8788 2.50885 14.1001 3.043 14.1001 3.59995C14.1001 4.15691 13.8788 4.69105 13.485 5.08488C13.0912 5.4787 12.5571 5.69995 12.0001 5.69995C11.4431 5.69995 10.909 5.4787 10.5152 5.08488C10.1213 4.69105 9.9001 4.15691 9.9001 3.59995C9.9001 3.043 10.1213 2.50885 10.5152 2.11503C10.909 1.7212 11.4431 1.49995 12.0001 1.49995C12.5571 1.49995 13.0912 1.7212 13.485 2.11503ZM12.0001 18.3C12.5571 18.3 13.0912 18.5212 13.485 18.915C13.8788 19.3089 14.1001 19.843 14.1001 20.4C14.1001 20.9569 13.8788 21.4911 13.485 21.8849C13.0912 22.2787 12.5571 22.5 12.0001 22.5C11.4431 22.5 10.909 22.2787 10.5152 21.8849C10.1213 21.4911 9.9001 20.9569 9.9001 20.4C9.9001 19.843 10.1213 19.3089 10.5152 18.915C10.909 18.5212 11.4431 18.3 12.0001 18.3Z" fill="#707070" stroke="white" stroke-width="0.6"/>
</svg>
