<svg width="22" height="22" viewBox="0 0 22 22" fill="none" xmlns="http://www.w3.org/2000/svg">
<path fill-rule="evenodd" clip-rule="evenodd" d="M11.0025 4.52098C8.98058 2.9473 6.05114 3.08892 4.19283 4.94655C2.18052 6.95886 2.18052 10.2265 4.19283 12.2389L10.5123 18.5584C10.7811 18.8272 11.2163 18.8272 11.4851 18.5584L17.8046 12.2389C19.817 10.2265 19.817 6.95886 17.8046 4.94655C15.9553 3.09717 13.0258 2.96655 11.0025 4.52098ZM10.9998 6.12148C11.3009 6.11598 11.4583 5.94411 11.4831 5.9228C13.1021 4.51342 15.3613 4.44811 16.8325 5.91936C18.3079 7.39473 18.3079 9.79067 16.8325 11.2667L10.9984 17.1002L5.16495 11.2667C3.68958 9.79067 3.68958 7.39473 5.16495 5.91936C6.64102 4.44329 9.03764 4.44398 10.5137 5.92005C10.6423 6.04861 10.8176 6.12148 10.9998 6.12148Z" fill="#252525"/>
</svg>
