<svg width="6" height="11" viewBox="0 0 6 11" fill="none" xmlns="http://www.w3.org/2000/svg">
<path d="M0.782646 0.161019L0.782627 0.160702C0.878213 0.154851 0.97388 0.17197 1.06191 0.210769L1.12627 0.0647561L1.06191 0.21077C1.14996 0.249574 1.22801 0.309032 1.2896 0.384531L1.28986 0.38485L5.14679 5.08787C5.1469 5.08801 5.14701 5.08814 5.14713 5.08828C5.23726 5.19989 5.28679 5.3402 5.28679 5.48534C5.28679 5.63065 5.23713 5.77113 5.14679 5.88281L5.14577 5.88407L5.14577 5.88408L1.41933 10.5879L1.41604 10.5921L1.41611 10.5921C1.36524 10.6609 1.30108 10.7181 1.22774 10.7602C1.15441 10.8023 1.07344 10.8285 0.989908 10.8372C0.906378 10.8459 0.82195 10.837 0.741886 10.811C0.661816 10.7849 0.587729 10.7423 0.524333 10.6856L0.518984 10.6809L0.518882 10.681C0.455969 10.6296 0.403507 10.566 0.364634 10.4937C0.325757 10.4214 0.30127 10.3419 0.292669 10.2597C0.284068 10.1776 0.291536 10.0945 0.314613 10.0154C0.33769 9.93623 0.375891 9.86265 0.426901 9.79882L0.427359 9.79825L0.427357 9.79824L3.76033 5.5883L3.84026 5.48734L3.75846 5.38789L0.302192 1.18597C0.302153 1.18592 0.302114 1.18588 0.302076 1.18583C0.250434 1.12282 0.211413 1.04994 0.187361 0.971319C0.163292 0.892639 0.15472 0.809849 0.162172 0.727724C0.169623 0.645599 0.19294 0.565869 0.230701 0.493103C0.268455 0.420351 0.319867 0.356056 0.381881 0.303808L0.782646 0.161019ZM0.782646 0.161019L0.772562 0.160999M0.782646 0.161019L0.772562 0.160999M0.772562 0.160999C0.630298 0.160716 0.49207 0.21104 0.381911 0.303783L0.772562 0.160999Z" fill="#545454" stroke="white" stroke-width="0.3"/>
</svg>
